<?xml version="1.0" standalone="no"?>
<!DOCTYPE svg PUBLIC "-//W3C//DTD SVG 20010904//EN"
 "http://www.w3.org/TR/2001/REC-SVG-20010904/DTD/svg10.dtd">
<svg version="1.0" xmlns="http://www.w3.org/2000/svg"
 width="911.000000pt" height="911.000000pt" viewBox="0 0 911.000000 911.000000"
 preserveAspectRatio="xMidYMid meet">

<g transform="translate(0.000000,911.000000) scale(0.100000,-0.100000)"
fill="#000000" stroke="none">
<path d="M5240 8854 c-8 -3 -24 -22 -34 -44 -10 -22 -27 -46 -36 -55 -15 -14
-16 -12 -12 15 4 25 1 30 -16 30 -18 0 -21 -9 -27 -77 -5 -55 -13 -84 -26 -99
-10 -11 -22 -42 -25 -70 -7 -53 -16 -69 -47 -86 -19 -10 -20 -8 -13 38 3 28
15 57 27 70 12 13 23 34 24 48 2 13 7 35 11 48 4 12 9 46 10 73 2 66 1 63 22
68 12 3 11 5 -6 6 -13 0 -40 -10 -60 -24 -20 -14 -42 -25 -48 -25 -24 0 -105
-42 -117 -61 -14 -22 -50 -25 -67 -4 -22 26 -98 65 -129 65 -17 0 -31 5 -31
11 0 21 -70 38 -181 45 -102 5 -120 4 -169 -15 -83 -33 -159 -97 -203 -172
-57 -97 -77 -156 -142 -416 -7 -28 -20 -73 -28 -100 -19 -60 -30 -134 -17
-113 5 8 11 12 15 9 8 -9 -7 -69 -16 -63 -12 7 -11 -23 2 -47 8 -16 5 -26 -15
-49 -15 -19 -27 -49 -31 -78 -12 -95 -45 -123 -45 -39 -1 38 -2 40 -13 21 -7
-11 -24 -36 -38 -55 -15 -19 -30 -45 -34 -59 -15 -49 -58 -126 -91 -160 -19
-19 -47 -51 -64 -70 -25 -30 -29 -32 -30 -14 0 11 15 41 34 65 18 24 59 94 91
154 31 61 65 119 76 131 23 25 59 114 59 146 0 22 0 22 -19 2 -10 -11 -24 -37
-30 -57 -14 -41 -38 -65 -26 -26 11 38 46 109 54 109 9 0 31 82 31 115 0 48
-18 34 -54 -42 -33 -69 -38 -74 -50 -58 -10 14 -15 15 -21 5 -4 -7 -2 -16 6
-21 11 -7 8 -19 -16 -65 -34 -64 -45 -74 -45 -43 0 21 -1 21 -19 5 -10 -9 -22
-37 -26 -62 -3 -24 -10 -44 -16 -44 -5 0 -9 -9 -9 -20 0 -26 -39 -80 -57 -80
-13 0 -78 -129 -90 -179 -3 -14 -15 -43 -25 -64 -18 -36 -18 -40 -4 -56 9 -10
13 -21 9 -24 -3 -4 -3 -7 0 -7 4 0 30 23 59 50 29 28 58 50 64 50 11 0 24 -22
24 -41 0 -16 -68 -81 -78 -75 -6 3 -19 -12 -31 -34 -23 -44 -12 -64 13 -25 10
15 22 22 31 19 10 -4 29 9 53 35 35 39 62 52 62 32 0 -5 -14 -21 -31 -35 -57
-48 -126 -141 -145 -193 -10 -29 -24 -53 -30 -53 -6 0 -16 17 -22 37 -10 32
-9 44 8 78 21 44 26 80 11 89 -4 3 -17 -13 -27 -36 -112 -243 -208 -388 -237
-359 -6 6 3 22 23 43 41 41 90 116 90 139 0 9 9 28 20 42 11 14 20 33 20 42 0
9 11 38 24 64 46 87 59 129 59 193 0 35 7 77 15 95 9 18 13 36 9 40 -10 10
-52 -32 -112 -112 -64 -85 -85 -107 -160 -165 -97 -76 -258 -235 -241 -238 9
-2 29 6 45 17 16 12 39 21 51 21 25 0 77 25 106 52 20 17 22 18 28 2 8 -20
-49 -74 -80 -74 -26 0 -71 -48 -76 -80 -2 -19 -8 -24 -25 -22 -14 2 -26 -4
-33 -17 -5 -11 -25 -27 -43 -36 -49 -23 -137 -104 -137 -126 0 -23 13 -25 30
-4 8 9 21 13 36 9 15 -4 32 1 50 15 15 12 33 21 42 21 10 0 13 7 10 24 -4 21
-2 23 16 17 28 -11 32 -31 8 -38 -11 -3 -23 -12 -26 -20 -5 -12 2 -14 31 -11
30 2 38 -1 41 -15 3 -13 -9 -23 -42 -38 -25 -11 -48 -24 -51 -29 -3 -5 -19 -7
-35 -3 -28 5 -30 3 -30 -24 0 -39 -31 -65 -132 -115 -20 -10 -39 -22 -43 -28
-10 -16 -105 -60 -131 -60 -13 0 -24 -4 -24 -9 0 -5 -16 -15 -35 -21 -28 -9
-35 -17 -35 -38 -1 -25 -2 -25 -14 -9 -7 9 -16 17 -20 17 -4 0 -6 -8 -5 -17 8
-53 -36 -94 -77 -72 -21 11 -27 10 -47 -8 -23 -22 -66 -37 -132 -48 -65 -11
-125 -41 -125 -63 0 -13 -9 -22 -28 -27 -15 -4 -22 -9 -15 -12 20 -7 3 -31
-18 -26 -10 3 -19 0 -19 -6 0 -6 5 -11 11 -11 17 0 39 -27 39 -48 0 -30 -11
-52 -25 -52 -18 0 -24 20 -13 48 9 27 5 38 -22 52 -17 9 -19 8 -11 -12 5 -14
3 -38 -5 -63 -7 -22 -15 -61 -19 -86 -3 -27 -14 -54 -25 -64 -20 -18 -20 -17
-20 49 0 37 7 83 15 103 31 74 10 167 -29 128 -17 -17 -19 -24 -35 -115 -25
-141 -20 -272 11 -291 20 -13 40 12 35 41 -3 14 -2 32 4 40 7 12 9 12 9 2 0
-22 24 -7 30 19 4 16 14 25 30 27 14 2 31 9 38 14 16 14 27 4 16 -14 -5 -7 -9
-18 -10 -24 -1 -9 -16 -32 -87 -137 -22 -34 -19 -62 9 -62 11 0 28 -8 37 -17
32 -31 95 11 131 88 31 65 52 82 42 33 -4 -19 -8 -49 -9 -68 -2 -28 -7 -36
-29 -42 -15 -4 -46 -25 -70 -48 -28 -27 -48 -39 -58 -35 -32 14 -71 16 -99 5
-23 -10 -27 -17 -23 -38 4 -23 8 -25 45 -19 34 6 38 4 33 -10 -3 -8 -6 -18 -6
-20 0 -2 -15 -4 -33 -4 -18 0 -50 -9 -72 -21 -42 -22 -155 -135 -152 -152 3
-14 -87 -45 -223 -76 -62 -15 -94 -31 -83 -42 7 -7 21 -3 45 11 43 25 132 38
143 21 4 -7 0 -20 -9 -30 -16 -17 -16 -19 1 -26 15 -5 13 -9 -14 -20 -18 -8
-33 -21 -33 -30 0 -8 -7 -15 -15 -15 -8 0 -15 -7 -15 -16 0 -9 -9 -27 -20 -41
-11 -14 -20 -32 -20 -39 0 -8 -4 -14 -8 -14 -5 0 -26 -39 -48 -87 -72 -163
-222 -429 -330 -586 -30 -43 -54 -80 -54 -83 0 -6 -30 -42 -121 -143 -170
-188 -295 -308 -476 -456 -68 -55 -85 -75 -65 -75 8 0 36 21 177 129 91 70
427 413 483 493 28 40 56 49 66 22 3 -9 6 -47 6 -84 0 -51 9 -99 35 -182 103
-328 105 -351 98 -968 -1 -85 -1 -184 -1 -220 1 -108 -21 -238 -48 -278 -13
-19 -24 -40 -24 -46 0 -6 -14 -26 -30 -45 -17 -18 -30 -37 -30 -41 0 -4 -47
-57 -105 -116 -67 -69 -103 -114 -100 -123 17 -45 241 -341 394 -521 l29 -34
17 56 c15 53 35 167 70 398 20 129 28 168 63 290 17 58 40 152 52 210 11 58
30 132 40 165 19 59 46 235 57 368 4 48 10 70 22 76 21 11 414 36 435 28 13
-5 16 -25 16 -119 0 -181 39 -477 94 -715 36 -156 37 -170 22 -186 -8 -7 -15
-22 -18 -33 -2 -11 -13 -20 -26 -22 -12 -2 -27 -12 -32 -23 -6 -10 -17 -19
-25 -19 -8 0 -15 -3 -15 -7 0 -5 -16 -19 -35 -32 -19 -13 -35 -31 -35 -41 0
-10 -9 -20 -20 -23 -11 -3 -25 -18 -31 -34 -6 -15 -18 -36 -27 -46 -9 -10 -16
-28 -17 -40 -1 -41 -68 -198 -89 -212 -24 -15 -64 -28 -156 -51 -36 -8 -79
-19 -97 -24 -88 -22 -133 -83 -100 -134 9 -14 49 -53 88 -87 69 -58 74 -61
114 -56 46 7 73 17 125 48 73 45 229 119 249 119 12 0 38 15 58 34 21 18 54
41 73 51 19 9 49 28 67 41 17 13 67 32 110 43 43 10 103 28 134 39 63 24 242
62 287 62 37 0 73 13 132 48 69 41 148 71 230 88 154 32 190 46 242 93 66 59
70 74 52 163 -37 175 -84 620 -84 791 0 231 -29 358 -129 557 -44 88 -62 116
-79 118 -30 4 -55 41 -41 59 16 19 3 58 -29 88 -31 31 -104 83 -147 106 -19
10 -32 28 -38 50 -5 19 -15 41 -23 50 -8 8 -14 30 -14 47 0 33 -8 40 -27 21
-6 -6 -19 -9 -29 -7 -15 3 -10 10 24 31 23 15 42 31 42 36 0 10 70 54 76 48 2
-2 -2 -17 -8 -35 -13 -35 -7 -48 18 -38 13 5 15 14 10 49 -4 23 -9 83 -11 132
-3 50 -9 103 -15 119 -5 16 -10 45 -10 65 0 20 -7 61 -15 91 -9 30 -25 111
-35 178 -11 68 -23 128 -26 133 -16 27 -32 272 -23 356 5 48 12 117 14 153 13
158 29 277 41 295 7 11 16 39 20 63 6 37 4 42 -10 36 -9 -3 -16 -10 -16 -15 0
-4 -10 -13 -21 -20 -20 -10 -21 -9 -15 12 4 13 8 31 10 39 1 8 8 29 15 45 7
17 10 42 7 57 -3 17 1 35 13 50 10 13 27 41 38 63 10 22 27 52 37 68 16 24 17
27 2 27 -9 0 -16 -3 -16 -7 0 -5 -10 -19 -21 -33 l-21 -25 6 32 c3 18 16 45
28 60 40 49 143 153 151 153 4 0 7 -9 7 -20 0 -11 -4 -20 -10 -20 -5 0 -10 -5
-10 -11 0 -6 7 -9 15 -6 19 8 21 2 30 -60 6 -49 6 -51 -14 -46 -15 4 -21 1
-21 -11 0 -9 8 -16 19 -16 20 0 37 -32 33 -61 -3 -20 23 -71 31 -62 4 3 7 26
7 49 0 35 11 79 26 102 6 9 74 -46 84 -67 11 -25 -2 -81 -27 -111 -18 -22 -63
-109 -63 -121 0 -6 -10 -19 -22 -29 l-23 -18 39 -16 c45 -19 62 -20 71 -6 9
14 81 50 100 50 9 0 28 -9 44 -20 24 -18 33 -20 72 -11 24 6 72 11 106 11 59
0 116 9 290 47 54 12 76 13 86 5 8 -7 36 -12 63 -13 27 -1 57 -6 66 -11 13 -6
35 0 76 21 47 24 62 37 77 71 11 23 34 61 52 84 18 22 36 55 39 72 6 34 -19
146 -40 179 -29 45 -108 236 -103 249 3 8 -3 30 -14 50 -10 20 -19 46 -19 58
-2 74 -105 157 -178 143 -20 -4 -65 -1 -100 6 -51 11 -66 11 -70 1 -6 -18 -62
-15 -62 3 0 18 30 55 45 55 11 0 43 161 52 260 l5 55 121 75 c66 41 129 78
138 82 9 4 20 11 23 17 4 6 26 20 49 31 110 52 427 322 427 362 0 5 6 8 13 8
15 0 47 35 47 52 0 6 37 47 82 90 61 60 78 82 70 90 -19 19 -14 47 13 83 14
18 53 88 86 154 l60 122 37 -2 c21 -2 43 1 50 5 7 4 14 -3 18 -19 5 -20 -2
-39 -30 -80 -20 -30 -36 -57 -36 -61 0 -3 16 8 35 25 20 17 39 31 44 31 4 0
17 20 29 44 23 44 46 63 57 46 11 -17 41 -11 62 13 25 27 104 189 113 232 4
20 13 31 26 33 17 2 23 17 38 85 9 45 21 98 26 117 5 19 8 44 5 55 -2 11 -6
32 -10 47 -3 16 -11 27 -18 25 -7 -1 -12 10 -12 28 0 31 17 37 58 20 22 -9 23
17 1 36 -9 7 -20 23 -25 36 -8 22 -24 26 -59 17z m-494 -138 c7 -8 19 -16 26
-19 7 -2 10 -8 6 -12 -7 -7 -57 25 -58 38 0 11 10 8 26 -7z m223 -33 c11 -41
10 -49 -7 -72 -10 -14 -22 -37 -25 -51 -4 -14 -18 -38 -32 -55 l-26 -30 6 43
c3 24 10 51 17 61 8 13 8 26 0 50 -16 45 9 95 49 100 4 1 12 -20 18 -46z m258
-270 c-4 -17 -4 -17 -12 0 -4 9 -4 25 0 35 8 16 8 16 12 0 3 -10 3 -26 0 -35z
m-264 -30 c-6 -23 -31 -58 -38 -52 -4 5 31 69 39 69 2 0 2 -8 -1 -17z m-140
-138 c-5 -13 -23 -22 -23 -11 0 15 14 35 21 31 4 -3 6 -12 2 -20z m-243 0 c0
-4 -7 -19 -15 -36 -19 -36 -13 -49 23 -49 20 0 23 -3 14 -12 -7 -7 -12 -19
-12 -27 0 -8 -10 -25 -22 -38 -18 -20 -20 -26 -9 -33 10 -5 26 1 52 22 21 17
50 31 66 33 15 1 36 5 46 10 27 12 31 0 17 -52 -35 -126 -151 -343 -184 -343
-8 0 -35 -30 -59 -67 -119 -178 -304 -363 -418 -417 -20 -9 -65 -41 -100 -71
-35 -30 -69 -55 -75 -55 -7 0 -25 -7 -40 -15 -31 -16 -109 -20 -118 -6 -3 4 6
19 19 31 14 13 25 31 25 41 0 10 5 21 10 24 12 7 13 45 2 45 -5 0 -14 -11 -20
-25 -6 -14 -18 -25 -26 -25 -36 0 -74 -91 -43 -103 7 -3 5 -6 -6 -6 -9 -1 -35
-12 -57 -26 -23 -14 -42 -21 -45 -15 -3 6 4 14 17 19 16 7 32 31 52 83 22 53
41 83 73 112 24 21 43 43 43 48 0 6 10 23 21 40 12 16 26 48 31 71 17 75 58
140 58 91 0 -8 5 -12 10 -9 19 12 60 84 60 105 0 35 51 180 76 218 24 36 28
45 25 73 -1 9 17 33 41 53 35 30 50 36 78 34 33 -3 35 -1 35 27 0 24 7 33 35
47 19 9 51 20 70 23 118 19 140 28 161 62 11 18 25 33 30 33 12 0 40 70 33 81
-3 5 2 9 10 9 9 0 16 -2 16 -5z m-643 -147 c-3 -7 -5 -2 -5 12 0 14 2 19 5 13
2 -7 2 -19 0 -25z m358 -8 c-64 -30 -85 -36 -85 -21 0 9 103 48 130 49 8 0
-12 -12 -45 -28z m-256 -43 c-9 -7 -21 -22 -28 -34 -13 -26 -31 -30 -31 -8 0
21 36 55 58 55 15 -1 15 -2 1 -13z m106 -17 c-12 -19 -84 -60 -105 -60 -35 0
-22 17 33 43 55 27 82 34 72 17z m-123 -140 c4 -44 -15 -62 -32 -30 -13 25
-13 43 2 58 20 20 26 14 30 -28z m-116 -86 c-4 -9 -9 -15 -11 -12 -3 3 -3 13
1 22 4 9 9 15 11 12 3 -3 3 -13 -1 -22z m34 -163 c0 -26 -10 -51 -21 -51 -5 0
-9 16 -9 35 0 24 5 35 15 35 8 0 15 -9 15 -19z m-183 -66 c-3 -19 -13 -45 -22
-57 l-17 -23 6 30 c8 38 27 85 34 85 2 0 2 -16 -1 -35z m-87 -236 c-22 -46
-45 -88 -50 -93 -17 -17 -11 12 10 54 11 22 20 45 20 52 0 7 12 38 27 68 24
49 27 52 30 29 3 -16 -12 -58 -37 -110z m-160 81 c0 -5 -4 -10 -10 -10 -5 0
-10 5 -10 10 0 6 5 10 10 10 6 0 10 -4 10 -10z m-340 -256 c0 -25 -4 -43 -9
-39 -13 7 -24 62 -16 75 14 23 25 7 25 -36z m85 -33 c0 -34 -35 -66 -80 -73
-16 -3 -38 -9 -49 -13 -14 -6 -18 -5 -14 5 2 8 17 18 34 23 39 13 94 55 94 73
0 7 4 14 8 14 4 0 8 -13 7 -29z m-55 -111 c0 -6 -9 -27 -20 -47 -11 -21 -20
-43 -20 -50 0 -6 -4 -15 -10 -18 -20 -12 -11 71 11 99 21 27 39 34 39 16z
m177 -146 c-3 -3 -12 -4 -19 -1 -8 3 -5 6 6 6 11 1 17 -2 13 -5z m-307 -18 c0
-16 -34 -40 -69 -49 l-23 -6 23 25 c12 13 28 24 36 24 7 0 13 5 13 10 0 6 5
10 10 10 6 0 10 -6 10 -14z m50 -77 c0 -15 -30 -38 -50 -39 -10 0 -7 8 10 24
28 27 40 32 40 15z m408 -182 c3 -21 7 -27 21 -22 12 3 18 0 18 -11 0 -9 -8
-19 -18 -21 -9 -3 -23 -18 -29 -33 -14 -33 -37 -45 -56 -29 -18 15 -19 120 -2
137 7 7 24 12 38 10 19 -2 26 -10 28 -31z m52 13 c0 -5 -4 -10 -10 -10 -5 0
-10 5 -10 10 0 6 5 10 10 10 6 0 10 -4 10 -10z m-800 -189 c0 -12 -20 -25 -27
-18 -7 7 6 27 18 27 5 0 9 -4 9 -9z m321 -60 c-10 -18 -71 -47 -71 -33 0 8 61
52 73 52 4 0 3 -9 -2 -19z m-701 -75 c-14 -14 -22 -2 -14 18 5 14 9 15 15 4 4
-7 4 -17 -1 -22z m560 -21 c17 -21 3 -57 -22 -53 -26 4 -43 30 -35 52 8 20 40
21 57 1z m446 -24 c1 -32 1 -32 -19 -13 -12 12 -17 27 -13 37 10 27 31 11 32
-24z m211 -11 c7 -25 29 -60 49 -81 47 -48 43 -71 -16 -81 -101 -19 -196 -40
-212 -49 -43 -22 -48 -11 -21 44 14 28 31 55 37 60 12 8 -10 27 -32 27 -9 0
-12 10 -10 28 2 22 8 27 33 29 17 0 35 2 42 2 6 1 30 17 53 36 24 20 48 34 54
32 6 -2 16 -23 23 -47z m-713 -44 c9 -14 5 -23 -22 -47 -18 -16 -37 -27 -42
-24 -12 8 -13 45 -2 45 5 0 14 12 21 26 12 28 28 28 45 0z m-893 -59 c-13 -13
-26 -3 -16 12 3 6 11 8 17 5 6 -4 6 -10 -1 -17z m1668 -150 c13 -33 6 -37 -58
-37 -40 0 -63 -5 -71 -15 -7 -8 -28 -15 -47 -15 -32 0 -34 2 -31 27 4 37 49
57 133 60 60 2 67 0 74 -20z m-414 -186 c-3 -6 -11 -11 -17 -11 -6 0 -6 6 2
15 14 17 26 13 15 -4z m-1111 -68 c-7 -16 -14 -36 -14 -45 0 -9 -4 -20 -10
-23 -5 -3 -10 -14 -10 -24 0 -10 -9 -26 -20 -36 -11 -10 -20 -27 -20 -38 0
-18 -2 -19 -17 -5 -10 9 -24 13 -30 11 -7 -3 -13 0 -13 6 0 6 6 11 14 11 7 0
16 14 20 31 5 28 91 137 108 138 4 1 0 -11 -8 -26z m306 -17 c0 -17 -14 -29
-23 -20 -8 8 3 34 14 34 5 0 9 -6 9 -14z m-194 -55 c-3 -22 -8 -46 -11 -53 -4
-10 1 -14 17 -14 41 2 29 -28 -36 -94 -36 -36 -65 -71 -66 -77 0 -20 36 -15
51 7 8 10 26 22 40 25 21 5 27 2 32 -15 4 -17 -8 -35 -55 -83 -34 -34 -67 -61
-74 -59 -7 1 -15 -2 -19 -8 -3 -5 1 -10 9 -10 28 0 17 -24 -36 -80 -66 -69
-128 -145 -128 -158 0 -5 -7 -15 -15 -22 -21 -18 -19 2 5 47 11 21 20 43 20
50 0 19 -25 16 -44 -6 -10 -11 -28 -22 -42 -25 -13 -4 -24 -11 -24 -16 0 -10
-112 -125 -128 -132 -12 -4 -120 -153 -160 -218 -50 -81 -74 -149 -68 -186 5
-21 2 -35 -9 -44 -8 -7 -15 -18 -15 -26 0 -7 -7 -20 -16 -29 -19 -19 -14 -94
12 -171 26 -76 -3 -70 -50 11 -35 59 -35 132 -1 265 9 36 18 83 19 105 2 34 6
41 27 43 33 5 49 20 49 46 0 12 9 28 21 36 28 21 59 73 59 101 0 15 17 42 45
71 25 26 45 52 45 58 0 5 10 10 23 10 23 0 54 37 41 48 -4 4 -9 1 -11 -5 -3
-7 -9 -13 -15 -13 -13 0 -1 50 18 71 14 16 20 69 7 69 -3 0 -21 -11 -39 -25
-18 -14 -35 -25 -39 -25 -3 0 -22 -16 -42 -35 -31 -30 -63 -45 -63 -30 0 12
164 133 175 129 7 -3 15 6 18 23 4 21 31 47 114 107 97 71 173 148 173 175 0
5 8 12 18 15 23 8 137 135 146 164 13 38 29 26 22 -17z m-763 -544 c-39 -44
-73 -109 -73 -143 l0 -28 25 35 c19 24 32 33 48 31 12 -2 23 -5 25 -7 6 -5
-40 -85 -49 -85 -5 0 -17 -16 -26 -35 -20 -43 -5 -68 34 -59 25 7 25 7 9 -24
-9 -17 -16 -37 -16 -43 0 -20 -32 -49 -53 -49 -11 0 -28 -7 -38 -16 -21 -19
-39 -11 -39 17 0 10 -2 19 -4 19 -22 0 -36 -22 -57 -85 -15 -48 -30 -77 -41
-81 -29 -9 -38 4 -22 34 7 15 14 34 14 42 0 8 9 32 20 53 11 20 20 54 20 74 0
25 16 70 45 128 25 49 45 96 45 104 0 20 98 140 129 155 37 20 39 1 4 -37z
m37 -51 c0 -14 -29 -31 -38 -21 -6 6 18 35 29 35 5 0 9 -6 9 -14z m760 -21
c-7 -8 -17 -15 -22 -15 -6 0 -5 7 2 15 7 8 17 15 22 15 6 0 5 -7 -2 -15z m-40
-39 c0 -15 -64 -76 -80 -76 -18 0 -11 14 27 52 39 40 53 47 53 24z m-380 -70
c0 -7 -15 -25 -34 -39 -38 -30 -86 -45 -86 -28 0 6 14 14 30 18 17 3 36 15 42
27 18 34 48 48 48 22z m167 -113 c-9 -9 -19 -14 -23 -11 -10 10 6 28 24 28 15
0 15 -1 -1 -17z m-55 -42 c-13 -9 -39 -29 -57 -44 -27 -22 -42 -28 -72 -25
l-38 3 55 27 c30 15 70 37 89 48 40 23 58 16 23 -9z m-257 -40 c-3 -16 -14
-40 -24 -53 -9 -13 -23 -43 -31 -68 -8 -25 -23 -56 -33 -70 l-20 -25 7 35 c13
63 14 69 25 89 6 11 11 29 11 40 0 20 58 96 67 87 3 -2 2 -18 -2 -35z m75
-151 c12 -8 10 -14 -14 -39 -27 -28 -28 -33 -16 -55 12 -24 11 -32 -8 -66 -34
-59 -62 -145 -62 -191 0 -29 -23 -45 -38 -26 -19 25 -42 81 -42 103 0 13 7 27
16 32 11 6 15 18 12 35 -4 18 -1 24 9 20 16 -6 17 20 2 49 -10 18 -8 24 9 38
12 10 22 32 24 51 2 29 8 36 38 46 43 15 51 15 70 3z m54 -46 c22 -9 10 -24
-20 -24 -23 0 -31 10 -17 23 8 9 17 9 37 1z m-636 -89 c28 -14 57 -25 65 -25
8 0 26 -9 40 -20 14 -11 32 -20 41 -20 22 0 20 -20 -1 -21 -10 -1 -36 -3 -58
-5 -22 -2 -65 1 -95 5 -41 7 -59 6 -70 -4 -16 -14 -86 -45 -101 -45 -18 0 -8
24 37 91 52 79 64 83 142 44z m379 -12 c-17 -112 -18 -179 -3 -220 8 -24 12
-43 8 -43 -15 0 -32 24 -32 44 0 11 -5 34 -12 52 -11 31 -4 106 19 187 9 34
26 18 20 -20z m324 -135 c12 -24 39 -63 60 -89 22 -25 39 -51 39 -57 0 -7 6
-12 13 -12 14 0 110 -91 102 -98 -6 -6 -70 37 -115 78 -19 18 -45 39 -58 48
-13 8 -32 32 -42 53 -20 38 -38 119 -26 119 3 0 15 -19 27 -42z m-755 21 c4
-7 23 -9 51 -5 25 3 42 2 39 -3 -3 -5 1 -11 9 -15 8 -3 15 -14 15 -25 0 -12 9
-21 24 -25 14 -3 27 -14 31 -25 3 -10 14 -26 25 -36 11 -10 20 -21 20 -26 0
-18 -133 50 -165 85 -5 6 -22 19 -36 28 -15 9 -29 26 -32 37 -5 22 7 29 19 10z
m591 -146 c-3 -10 -5 -4 -5 12 0 17 2 24 5 18 2 -7 2 -21 0 -30z m207 -51 c10
-16 27 -33 36 -38 10 -5 60 -41 112 -80 85 -64 190 -124 218 -124 17 0 123
-50 118 -55 -5 -5 -79 19 -163 53 -27 11 -68 25 -90 32 -22 7 -54 23 -72 36
-17 13 -35 24 -39 24 -3 0 -30 17 -58 37 -44 32 -57 36 -96 34 -111 -9 -157 6
-177 58 -15 41 -1 48 21 11 20 -35 43 -42 117 -38 42 2 53 6 50 18 -17 68 -9
79 23 32z m-540 -14 c9 -12 16 -33 16 -47 0 -30 -8 -23 -31 29 -19 43 -10 54
15 18z m1056 -20 c0 -10 -4 -18 -10 -18 -5 0 -10 15 -10 33 0 24 3 28 10 17 5
-8 10 -23 10 -32z m-835 -52 c33 -28 70 -63 83 -78 13 -16 29 -28 35 -28 6 0
19 -7 29 -17 14 -12 18 -31 18 -80 0 -48 3 -63 14 -63 11 0 16 14 18 50 2 28
8 51 13 53 6 1 20 -19 32 -44 24 -50 96 -119 123 -119 9 0 25 9 35 20 25 28
90 25 90 -4 0 -13 -13 -24 -42 -35 -63 -22 -57 -31 28 -45 29 -5 38 -12 44
-33 7 -31 -8 -51 -27 -35 -21 17 -110 15 -205 -4 -21 -4 -22 -5 -5 -34 17 -30
37 -39 44 -19 3 10 102 12 248 6 47 -2 55 -5 58 -23 3 -21 -35 -44 -103 -60
l-30 -7 25 -7 c14 -5 57 -8 96 -9 76 -1 147 -22 123 -36 -11 -8 -176 -10 -309
-4 -25 1 -62 -6 -82 -14 -36 -15 -38 -15 -49 5 -7 14 -8 23 0 31 7 7 3 16 -14
28 -13 11 -31 43 -41 76 -9 32 -21 62 -26 67 -4 6 -8 34 -8 63 0 37 -4 55 -14
59 -8 3 -20 20 -27 37 -16 41 -44 69 -94 96 -50 27 -165 130 -165 149 0 8 -18
34 -40 59 -22 25 -40 50 -40 55 0 5 23 6 53 2 43 -5 62 -15 112 -58z m1065 14
c13 -9 11 -13 -9 -31 -37 -30 -69 -8 -36 25 19 19 25 19 45 6z m-535 -20 c3
-5 -1 -10 -9 -10 -9 0 -16 5 -16 10 0 6 4 10 9 10 6 0 13 -4 16 -10z m-100
-161 c25 -11 45 -22 43 -24 -9 -8 -66 9 -88 26 -33 25 -14 24 45 -2z m563
-172 c18 -38 39 -44 66 -18 12 11 27 21 33 21 30 0 120 -36 135 -54 27 -33 23
-102 -8 -143 -14 -18 -29 -33 -33 -33 -20 0 -20 34 -1 65 11 18 20 35 20 38 0
3 -25 4 -55 1 -39 -4 -65 0 -87 10 -17 9 -39 16 -49 16 -10 0 -20 8 -24 19 -3
10 -17 31 -30 47 -14 16 -25 37 -25 47 0 29 42 17 58 -16z m42 -162 c12 -25
31 -51 41 -59 12 -8 17 -19 13 -30 -9 -23 -23 -20 -34 8 -5 14 -17 29 -28 35
-18 10 -45 75 -34 85 12 13 21 4 42 -39z m-142 -59 c2 -10 -2 -22 -10 -27 -38
-25 -79 11 -42 38 24 18 48 13 52 -11z m282 -65 c0 -34 -9 -44 -27 -30 -16 14
-17 41 -1 57 16 16 28 5 28 -27z m188 -54 c2 -19 -1 -27 -13 -27 -19 0 -30 24
-21 46 9 23 31 11 34 -19z m-411 -39 c4 -33 1 -47 -12 -58 -15 -12 -19 -12
-31 5 -20 27 -18 92 4 104 23 13 33 1 39 -51z m-327 16 c0 -27 0 -27 -61 -20
-72 7 -84 13 -68 32 7 9 32 14 70 14 57 0 59 -1 59 -26z m135 -9 c0 -32 -32
-30 -49 3 l-15 29 32 -6 c23 -5 32 -12 32 -26z m-338 -1 c-3 -3 -12 -4 -19 -1
-8 3 -5 6 6 6 11 1 17 -2 13 -5z m723 -14 c0 -5 -2 -10 -4 -10 -3 0 -8 5 -11
10 -3 6 -1 10 4 10 6 0 11 -4 11 -10z m-462 -72 c18 -18 15 -28 -8 -28 -13 0
-20 7 -20 20 0 23 10 26 28 8z m-98 -170 c0 -5 9 -23 21 -39 26 -37 61 -38
132 -5 50 24 157 45 157 32 0 -12 -104 -56 -131 -56 -15 0 -32 -7 -40 -16 -9
-11 -22 -14 -43 -9 -17 3 -44 8 -60 9 -18 2 -34 12 -42 27 -16 28 -19 83 -4
74 6 -3 10 -11 10 -17z m451 -657 c-14 -24 -46 -44 -105 -64 -84 -29 -71 -8
34 55 55 33 86 37 71 9z"/>
<path d="M4434 8024 c-18 -15 -18 -15 11 -9 37 8 57 25 29 25 -11 0 -29 -7
-40 -16z"/>
<path d="M4335 8000 c-3 -5 3 -10 14 -10 11 0 23 5 26 10 3 6 -3 10 -14 10
-11 0 -23 -4 -26 -10z"/>
<path d="M4555 8000 c-3 -5 -1 -10 4 -10 6 0 11 5 11 10 0 6 -2 10 -4 10 -3 0
-8 -4 -11 -10z"/>
<path d="M4407 7681 c-25 -43 -21 -50 8 -11 27 37 29 40 17 40 -4 0 -15 -13
-25 -29z"/>
<path d="M4307 7532 c-25 -27 -21 -36 5 -12 12 11 19 22 16 25 -2 3 -12 -3
-21 -13z"/>
<path d="M2085 5365 c-16 -7 -47 -31 -68 -53 -21 -23 -44 -39 -51 -36 -20 8
-58 -12 -103 -55 -35 -32 -43 -47 -43 -75 0 -19 -4 -38 -10 -41 -14 -9 -12
-35 3 -35 7 0 37 25 67 55 30 30 60 55 66 55 22 0 125 95 150 138 31 52 28 64
-11 47z"/>
<path d="M1185 4390 c-3 -5 3 -10 15 -10 12 0 18 5 15 10 -3 6 -10 10 -15 10
-5 0 -12 -4 -15 -10z"/>
<path d="M2031 3489 c-18 -7 -21 -12 -12 -23 10 -12 20 -11 64 1 28 9 56 19
62 24 12 12 -83 10 -114 -2z"/>
<path d="M3961 8592 c-41 -43 -70 -86 -159 -230 -12 -20 -27 -56 -33 -79 -6
-23 -22 -52 -35 -64 -13 -12 -24 -30 -24 -40 0 -10 -4 -21 -10 -24 -5 -3 -10
-17 -10 -30 0 -13 -12 -37 -26 -54 -14 -17 -23 -31 -20 -31 4 0 -10 -31 -30
-69 -24 -43 -35 -75 -31 -86 10 -23 33 -4 40 33 3 15 18 41 34 57 64 67 113
150 153 259 12 30 36 74 55 99 19 25 42 65 51 88 10 24 28 61 41 81 13 21 23
45 23 54 0 9 9 32 21 50 29 48 14 42 -40 -14z"/>
<path d="M5345 8463 c-21 -92 -87 -236 -145 -313 -22 -30 -39 -61 -38 -70 2
-9 19 -17 43 -21 163 -26 284 -65 323 -105 14 -13 28 -24 32 -24 4 0 45 -22
91 -50 46 -27 118 -67 159 -89 87 -47 200 -142 261 -220 41 -53 79 -137 79
-176 0 -11 7 -33 16 -50 52 -96 63 -126 69 -190 5 -42 19 -95 36 -132 16 -34
31 -75 34 -90 4 -15 15 -58 26 -95 43 -152 63 -214 75 -233 15 -24 65 -205 59
-215 -2 -3 5 -40 15 -81 11 -41 27 -110 35 -154 9 -44 23 -104 32 -132 9 -29
17 -65 18 -80 1 -16 10 -62 19 -103 10 -41 21 -97 26 -123 5 -27 13 -54 18
-60 16 -20 32 -153 38 -307 2 -80 11 -197 19 -260 8 -63 17 -156 21 -207 6
-79 10 -95 31 -115 18 -17 33 -22 65 -19 40 3 41 2 34 -26 -21 -88 -27 -129
-24 -181 3 -51 5 -57 26 -60 13 -2 41 8 64 23 33 22 48 26 78 21 33 -5 43 -2
76 29 43 39 54 42 54 19 0 -19 -76 -94 -96 -94 -20 0 -18 -54 2 -86 13 -19 19
-22 31 -13 10 9 20 9 39 0 35 -16 64 -14 64 4 0 9 7 18 15 21 8 4 15 17 15 29
0 25 15 41 24 27 2 -4 -2 -34 -11 -67 -25 -103 -32 -138 -38 -197 -5 -45 -15
-68 -46 -112 -43 -60 -75 -81 -154 -102 -86 -23 -142 -15 -191 28 -21 19 -22
19 -47 -4 -19 -18 -32 -52 -57 -153 -34 -139 -46 -180 -91 -316 -49 -149 -59
-242 -65 -619 -3 -190 -9 -455 -13 -590 -5 -170 -4 -247 3 -252 6 -4 25 -8 43
-8 37 0 271 -66 290 -82 7 -6 45 -12 83 -12 65 -2 72 -4 102 -35 48 -49 94
-62 274 -81 50 -5 118 -17 150 -26 33 -8 100 -26 149 -39 50 -13 113 -31 140
-40 33 -12 103 -20 205 -25 85 -4 162 -10 170 -14 11 -4 41 29 108 119 391
524 667 1137 802 1777 24 116 25 144 5 152 -8 3 -15 12 -15 21 0 8 -8 15 -19
15 -10 0 -24 7 -31 14 -6 8 -35 23 -63 32 -29 9 -66 29 -84 44 -17 16 -46 31
-65 35 -18 4 -42 15 -53 25 -11 9 -32 20 -47 24 -16 3 -28 13 -28 20 0 19 -61
46 -103 46 -19 0 -40 7 -47 15 -7 8 -19 15 -26 15 -8 0 -14 9 -14 19 0 21 -19
31 -60 31 -16 0 -36 7 -45 16 -14 14 -20 15 -41 3 -23 -12 -27 -11 -44 11 -14
19 -22 22 -30 13 -8 -7 -22 -8 -39 -3 -15 4 -65 11 -112 15 -46 4 -87 12 -91
18 -3 6 -29 12 -55 14 -51 3 -117 25 -128 43 -3 5 -15 10 -26 10 -10 0 -19 4
-19 9 0 5 -13 12 -30 16 -16 4 -30 13 -30 20 0 15 -27 28 -41 20 -5 -3 -4 -14
3 -24 6 -11 8 -26 3 -37 -6 -16 -9 -14 -17 14 -5 17 -13 32 -18 32 -12 0 -22
-37 -18 -70 3 -22 -1 -25 -29 -28 -38 -4 -42 9 -13 38 17 17 19 28 14 75 l-7
55 47 0 c46 0 55 4 102 47 30 28 33 90 6 123 -22 27 -18 61 9 86 10 9 19 23
19 31 0 8 9 31 20 53 31 61 27 97 -15 122 -29 16 -34 25 -29 42 3 11 10 25 14
29 8 9 132 -54 163 -84 12 -10 24 -19 28 -19 3 0 31 -23 60 -51 77 -74 199
-170 309 -244 52 -36 133 -92 180 -125 47 -33 104 -73 128 -88 41 -26 134 -93
216 -157 22 -16 88 -72 148 -123 61 -52 111 -92 114 -90 2 2 6 36 10 75 7 70
6 71 -22 88 -16 10 -41 26 -56 36 -15 11 -34 19 -42 19 -8 0 -27 11 -43 24
-15 13 -52 36 -81 52 -91 49 -157 88 -203 118 -24 16 -75 50 -114 74 -223 145
-333 219 -394 265 -38 29 -94 70 -126 92 -31 22 -61 48 -66 58 -5 9 -16 17
-24 17 -8 0 -28 14 -45 30 -17 16 -37 30 -45 30 -8 0 -15 6 -15 14 0 13 26 26
78 41 25 7 30 42 7 51 -27 11 -15 29 49 72 35 24 85 66 111 93 27 28 60 53 76
56 16 3 34 12 40 19 9 11 6 14 -15 14 -29 0 -33 11 -10 31 24 19 46 69 41 90
-4 14 0 18 17 16 16 -2 21 3 21 23 0 16 -6 25 -15 25 -18 0 -39 32 -40 61 0
12 -7 27 -15 34 -8 7 -15 18 -15 25 0 14 -75 85 -89 85 -6 0 -13 -4 -16 -10
-14 -22 -25 -7 -31 42 -6 42 -9 48 -15 30 -12 -31 -26 -27 -31 8 -3 20 0 34
10 39 11 6 12 12 3 29 -14 26 -47 45 -62 37 -17 -11 -54 21 -90 79 -19 30 -40
56 -46 56 -8 0 -13 14 -13 36 0 19 -4 33 -9 30 -5 -3 -16 6 -26 20 -9 14 -32
43 -52 65 -28 31 -32 40 -20 45 9 3 20 3 25 0 6 -3 22 0 36 8 l26 13 -37 7
c-21 3 -50 6 -65 6 -30 0 -141 77 -132 91 3 5 50 9 105 9 54 0 107 4 117 9 9
5 36 14 60 21 24 6 57 25 75 41 l32 30 -33 -16 c-24 -12 -37 -13 -46 -6 -9 8
-31 4 -77 -15 -79 -31 -203 -48 -267 -36 -91 16 -334 210 -409 326 -14 21 -34
66 -45 100 -11 33 -31 82 -44 108 -13 26 -24 60 -24 75 0 16 -8 40 -17 53 -10
14 -23 61 -30 105 -6 44 -27 127 -47 184 -38 113 -63 153 -53 88 l6 -37 -24
29 c-14 15 -40 61 -60 102 -19 41 -60 104 -90 141 -30 37 -55 71 -55 77 0 6
12 11 26 11 16 0 24 5 21 13 -2 6 -12 12 -23 12 -29 0 -68 31 -194 152 -63 62
-155 144 -203 183 -93 75 -278 180 -317 180 l-23 0 25 -19 c13 -11 64 -39 114
-63 112 -54 276 -179 259 -196 -7 -7 -86 19 -105 34 -16 12 -111 51 -193 78
-26 9 -58 22 -70 29 -12 8 -48 22 -81 33 -61 20 -80 40 -53 56 10 5 17 15 17
23 0 7 9 17 21 20 26 9 20 15 -27 25 -22 5 -47 4 -63 -2 -14 -6 -38 -10 -53
-10 -16 0 -28 -3 -28 -7 0 -4 -12 -13 -26 -20 -22 -10 -28 -9 -40 6 -7 10 -14
22 -14 27 0 6 -11 22 -25 36 -15 16 -29 46 -35 78 -5 29 -17 67 -26 84 -17 34
-73 98 -85 98 -4 0 -15 -35 -24 -77z m65 -28 c7 -9 8 -15 2 -15 -5 0 -12 7
-16 15 -3 8 -4 15 -2 15 2 0 9 -7 16 -15z m290 -285 c0 -5 -12 -10 -27 -10
-22 0 -25 2 -13 10 20 13 40 13 40 0z m-77 -7 c-7 -2 -19 -2 -25 0 -7 3 -2 5
12 5 14 0 19 -2 13 -5z m1597 -1813 c0 -5 -2 -10 -4 -10 -3 0 -8 5 -11 10 -3
6 -1 10 4 10 6 0 11 -4 11 -10z m170 -58 c43 -26 44 -27 18 -30 -15 -2 -40 4
-57 12 -34 18 -55 21 -46 6 3 -5 2 -10 -4 -10 -16 0 -22 18 -9 23 10 3 10 8
-2 22 -14 16 -12 17 20 10 19 -4 55 -19 80 -33z m63 -84 c24 -9 38 -28 20 -28
-18 0 -93 34 -93 42 0 10 23 5 73 -14z m184 -242 c61 -60 55 -73 -42 -79 -24
-2 -31 2 -33 21 -5 35 6 58 20 44 22 -22 32 -12 11 11 -57 63 -21 66 44 3z
m31 32 c14 -14 16 -48 2 -48 -10 0 -30 32 -30 49 0 14 13 14 28 -1z m-211 -60
c-3 -8 -6 -5 -6 6 -1 11 2 17 5 13 3 -3 4 -12 1 -19z m319 7 c4 -8 2 -21 -3
-28 -6 -6 -13 -29 -16 -50 -5 -33 -1 -47 28 -90 29 -45 35 -63 40 -137 7 -97
-5 -92 -24 10 -23 117 -46 150 -81 113 -17 -18 -60 -116 -60 -136 0 -5 -10
-19 -22 -31 -13 -12 -40 -42 -60 -66 -21 -24 -38 -39 -38 -33 0 7 5 15 11 19
6 3 8 16 5 27 -5 19 8 40 69 110 8 9 15 20 15 23 0 3 8 18 19 32 24 36 81 185
81 215 0 37 25 52 36 22z m61 -472 c-3 -10 -5 -2 -5 17 0 19 2 27 5 18 2 -10
2 -26 0 -35z m-167 -542 c0 -6 -4 -13 -10 -16 -5 -3 -10 1 -10 9 0 9 5 16 10
16 6 0 10 -4 10 -9z m-10 -195 c0 -3 -4 -8 -10 -11 -5 -3 -10 -1 -10 4 0 6 5
11 10 11 6 0 10 -2 10 -4z m-360 -31 c38 -20 74 -65 61 -78 -12 -12 -101 57
-101 79 0 18 4 18 40 -1z m204 -10 c11 -8 15 -15 10 -15 -6 0 -19 7 -30 15
-10 8 -14 14 -9 14 6 0 19 -6 29 -14z m106 -144 c0 -5 -9 -11 -20 -14 -22 -6
-28 8 -7 16 19 8 27 8 27 -2z m51 -42 c-13 -10 -32 -19 -42 -19 -17 0 -18 3
-9 21 14 25 51 41 65 27 7 -6 2 -16 -14 -29z m-133 -339 c13 -11 21 -24 17
-30 -10 -17 -23 -12 -45 20 -25 35 -9 41 28 10z m112 -85 c-7 -8 -16 -15 -21
-15 -5 0 -9 7 -9 15 0 9 9 15 21 15 18 0 19 -2 9 -15z"/>
<path d="M3921 8348 c-7 -18 -24 -50 -38 -71 -13 -22 -31 -60 -39 -85 -15 -52
-20 -182 -5 -166 11 12 53 136 81 239 12 44 24 88 27 98 9 30 -12 18 -26 -15z"/>
<path d="M3592 8303 c-23 -15 -41 -32 -41 -38 4 -37 -4 -53 -43 -75 -60 -36
-158 -129 -151 -145 5 -15 -35 -95 -48 -95 -4 0 -81 -82 -172 -182 -91 -101
-182 -199 -202 -218 -20 -19 -43 -47 -51 -62 -8 -15 -37 -43 -64 -61 -27 -18
-66 -55 -85 -80 -24 -31 -44 -47 -58 -47 -20 0 -87 -49 -87 -64 0 -20 88 14
103 40 4 8 18 14 30 14 12 0 40 17 62 38 42 39 132 102 147 102 22 0 2 -24
-64 -76 -40 -32 -84 -68 -98 -82 -13 -13 -55 -42 -92 -63 -63 -37 -84 -59 -57
-59 6 0 42 20 79 45 37 25 72 45 78 45 5 0 15 7 22 15 6 8 40 30 73 49 34 19
67 45 72 58 7 17 25 27 71 39 64 16 93 33 186 110 52 43 154 156 186 204 7 11
21 33 32 50 13 20 16 31 8 36 -6 4 -7 12 -4 18 4 6 12 9 17 6 12 -8 12 28 -1
41 -6 6 5 24 29 50 42 46 72 92 91 144 7 19 19 42 25 50 41 53 84 220 57 220
-4 0 -27 -12 -50 -27z m-386 -605 c-25 -36 -52 -71 -61 -78 -8 -7 -15 -20 -15
-29 -1 -30 -63 -86 -137 -125 -67 -34 -55 -13 52 92 61 59 130 131 154 160 24
29 46 50 48 48 2 -2 -16 -33 -41 -68z m114 -23 c0 -8 -4 -15 -10 -15 -5 0 -7
7 -4 15 4 8 8 15 10 15 2 0 4 -7 4 -15z m-45 -55 c-20 -22 -35 -26 -35 -10 0
6 7 10 15 10 8 0 15 5 15 10 0 6 5 10 12 10 6 0 3 -9 -7 -20z m-55 -20 c0 -5
-4 -10 -10 -10 -5 0 -10 5 -10 10 0 6 5 10 10 10 6 0 10 -4 10 -10z"/>
<path d="M3414 8205 c-10 -8 -14 -15 -8 -15 6 0 17 7 24 15 16 19 9 19 -16 0z"/>
<path d="M5798 8193 c7 -3 16 -2 19 1 4 3 -2 6 -13 5 -11 0 -14 -3 -6 -6z"/>
<path d="M3325 8040 c-3 -5 -1 -10 4 -10 6 0 11 5 11 10 0 6 -2 10 -4 10 -3 0
-8 -4 -11 -10z"/>
<path d="M2945 7996 c-22 -7 -49 -17 -60 -23 -11 -6 -45 -21 -75 -33 -30 -12
-73 -30 -95 -40 -22 -10 -58 -25 -79 -34 -47 -19 -111 -61 -221 -144 -123 -93
-166 -132 -220 -200 -28 -35 -62 -76 -77 -93 -40 -44 -88 -116 -88 -132 0 -8
-9 -26 -20 -40 -11 -14 -20 -36 -20 -50 0 -13 -7 -30 -15 -37 -11 -9 -14 -26
-10 -62 3 -38 1 -50 -11 -55 -10 -4 -14 -13 -10 -27 3 -13 -3 -34 -14 -51 -24
-37 -25 -45 -2 -45 9 0 61 42 115 93 77 73 97 98 97 120 0 22 9 33 43 53 23
14 53 42 67 61 14 20 42 52 63 71 20 19 37 40 37 46 1 20 37 55 64 62 16 4 26
13 26 24 0 10 45 60 100 112 55 52 100 98 100 102 0 12 79 92 105 106 14 7 27
21 31 32 3 10 12 18 20 18 17 0 19 16 2 26 -6 4 -14 2 -16 -4 -4 -14 -42 -16
-42 -3 0 5 15 13 33 16 17 4 38 12 46 18 27 23 67 43 169 87 75 33 43 53 -43
26z m-455 -296 c0 -5 -9 -14 -20 -20 -24 -13 -26 -7 -4 14 18 18 24 20 24 6z
m-100 -69 c0 -5 -17 -21 -37 -37 -62 -47 -73 -58 -73 -71 0 -7 -7 -13 -15 -13
-27 0 -16 29 27 71 50 48 98 73 98 50z"/>
<path d="M2888 7885 c-44 -29 -54 -43 -40 -57 7 -7 21 -2 45 16 18 14 39 26
45 26 18 0 26 22 11 31 -18 12 -18 12 -61 -16z"/>
<path d="M3817 7854 c-4 -4 -7 -14 -7 -23 0 -11 3 -12 11 -4 6 6 10 16 7 23
-2 6 -7 8 -11 4z"/>
<path d="M3506 7834 c-9 -24 -7 -28 9 -14 17 14 20 30 6 30 -5 0 -12 -7 -15
-16z"/>
<path d="M6610 7775 c0 -3 7 -16 15 -29 9 -13 14 -29 13 -36 -2 -7 9 -16 23
-20 32 -9 161 -116 171 -141 8 -20 28 -35 28 -20 0 28 -25 66 -76 116 -90 90
-174 152 -174 130z"/>
<path d="M2785 7756 c-40 -21 -80 -54 -73 -61 4 -4 26 8 50 26 24 19 45 35 47
36 14 9 -8 8 -24 -1z"/>
<path d="M3490 7705 c-7 -9 -8 -15 -2 -15 5 0 12 7 16 15 3 8 4 15 2 15 -2 0
-9 -7 -16 -15z"/>
<path d="M3417 7666 c-34 -36 -67 -80 -67 -89 0 -15 25 -1 35 20 6 11 25 33
43 48 18 15 32 31 32 36 0 16 -21 9 -43 -15z"/>
<path d="M4653 7615 c-30 -31 -42 -55 -28 -55 7 0 85 77 85 84 0 16 -28 2 -57
-29z"/>
<path d="M3236 7465 c-16 -25 -16 -25 9 -13 14 6 25 17 25 25 0 21 -16 15 -34
-12z"/>
<path d="M3110 7331 c-24 -9 -80 -54 -80 -63 0 -18 37 -6 68 23 34 30 40 52
12 40z"/>
<path d="M2978 7309 c-32 -16 -51 -39 -33 -39 10 0 85 43 91 51 9 15 -19 9
-58 -12z"/>
<path d="M2918 7206 c-28 -21 -37 -46 -19 -46 6 0 23 11 38 24 38 33 20 54
-19 22z"/>
<path d="M2759 7179 l-24 -20 28 17 c15 9 27 18 27 20 0 8 -8 4 -31 -17z"/>
<path d="M2213 7153 c-13 -2 -23 -9 -23 -14 0 -13 22 -10 44 6 20 15 19 16
-21 8z"/>
<path d="M2780 7122 c-35 -18 -52 -42 -28 -42 17 0 75 46 67 54 -3 3 -20 -2
-39 -12z"/>
<path d="M1920 7104 c-6 -16 -18 -36 -26 -45 -8 -9 -25 -45 -38 -80 -12 -35
-28 -75 -35 -87 -7 -13 -10 -26 -7 -29 12 -12 35 8 41 35 3 17 21 54 38 84 43
72 62 127 48 141 -7 7 -14 2 -21 -19z"/>
<path d="M2459 7114 c-8 -9 -30 -27 -49 -40 -19 -13 -54 -36 -76 -53 -23 -16
-58 -37 -78 -46 -20 -9 -45 -32 -57 -51 -15 -25 -28 -34 -47 -34 -20 0 -23 -3
-14 -12 10 -10 17 -10 32 0 11 6 29 12 41 12 24 0 97 56 180 139 31 31 70 66
85 78 21 16 24 22 13 23 -9 0 -23 -7 -30 -16z"/>
<path d="M2845 7094 c-24 -20 -34 -34 -25 -34 21 0 86 55 74 62 -5 3 -27 -9
-49 -28z"/>
<path d="M2713 7015 c-25 -22 -26 -24 -8 -25 23 0 65 26 65 41 0 17 -29 9 -57
-16z"/>
<path d="M2574 6981 c-18 -11 -35 -24 -38 -30 -4 -6 -32 -23 -62 -37 -30 -14
-54 -29 -54 -34 0 -18 20 -20 47 -5 15 8 55 30 88 48 41 23 61 40 63 55 4 27
-4 27 -44 3z"/>
<path d="M2795 6941 c-6 -11 9 -23 19 -14 9 9 7 23 -3 23 -6 0 -12 -4 -16 -9z"/>
<path d="M2565 6865 c-124 -59 -187 -84 -199 -79 -9 3 -19 -6 -27 -25 -8 -17
-17 -31 -21 -31 -12 0 -88 -83 -94 -104 -4 -12 -2 -22 5 -24 6 -2 9 -8 6 -13
-3 -5 -15 -3 -26 4 -29 17 -52 -15 -44 -62 6 -32 5 -33 -19 -29 -18 4 -32 -2
-46 -17 -24 -25 -12 -42 17 -27 10 5 40 12 67 16 27 3 73 17 102 31 29 14 55
25 58 25 3 0 16 10 30 23 17 16 23 30 20 44 -4 13 2 28 14 39 10 11 27 31 37
47 9 15 24 27 31 27 8 0 14 7 14 15 0 23 22 65 35 65 7 0 20 9 31 21 10 12 31
28 47 35 15 8 25 19 22 24 -8 13 -24 12 -60 -5z m-242 -286 c27 -1 24 -3 -18
-13 -27 -7 -51 -11 -53 -11 -10 7 13 35 25 31 8 -3 29 -6 46 -7z m-99 -25 c23
-9 20 -34 -4 -34 -13 0 -20 7 -20 20 0 22 1 23 24 14z"/>
<path d="M2736 6844 c-5 -14 -4 -15 9 -4 17 14 19 20 6 20 -5 0 -12 -7 -15
-16z"/>
<path d="M2072 6790 c-36 -22 -56 -37 -75 -58 -7 -7 -28 -29 -47 -50 -32 -34
-79 -97 -105 -140 -5 -9 -23 -37 -38 -60 -33 -52 -39 -85 -16 -90 12 -2 37 29
85 105 37 59 84 126 104 148 21 22 63 68 95 103 59 63 57 79 -3 42z"/>
<path d="M2121 6764 c-23 -26 -41 -50 -41 -55 0 -4 -25 -44 -55 -89 -30 -45
-55 -87 -55 -93 0 -7 7 -3 15 8 7 11 23 31 35 45 32 38 113 151 139 193 31 51
11 47 -38 -9z"/>
<path d="M5098 6699 c-7 -5 -26 -9 -43 -9 -16 0 -39 -7 -49 -15 -10 -8 -23
-12 -27 -9 -4 2 -18 -9 -31 -26 -17 -23 -28 -30 -44 -26 -24 6 -47 -14 -63
-57 -14 -35 0 -64 34 -73 14 -3 22 -10 19 -15 -3 -5 4 -9 16 -9 11 0 23 7 26
15 8 19 24 20 24 1 0 -35 73 -34 108 2 43 44 208 105 366 136 60 12 111 26
113 32 5 14 -41 34 -78 34 -17 0 -49 4 -72 10 -56 12 -282 19 -299 9z"/>
<path d="M1897 6693 c-4 -3 -7 -11 -7 -17 0 -6 5 -5 12 2 6 6 9 14 7 17 -3 3
-9 2 -12 -2z"/>
<path d="M2661 6616 c-18 -10 -30 -20 -27 -23 8 -8 116 21 116 32 0 17 -55 11
-89 -9z"/>
<path d="M4797 6593 c-11 -10 -8 -43 3 -43 6 0 10 11 10 25 0 26 -2 29 -13 18z"/>
<path d="M7947 6469 c-26 -27 -44 -49 -39 -49 17 0 90 61 95 80 8 29 -2 24
-56 -31z"/>
<path d="M1932 6483 c-10 -16 -24 -43 -30 -60 -15 -45 2 -52 39 -17 22 21 29
37 29 66 0 45 -12 48 -38 11z"/>
<path d="M2323 6459 c-38 -17 -57 -42 -52 -65 1 -5 -3 -21 -9 -36 -8 -19 -16
-26 -27 -22 -11 5 -13 10 -5 19 7 9 6 16 -5 25 -13 11 -21 10 -43 0 -15 -8
-52 -14 -82 -14 -50 -1 -55 -3 -60 -26 -3 -14 -10 -34 -17 -45 -10 -16 -13
-17 -28 -5 -14 12 -18 12 -26 -1 -5 -8 -8 -23 -7 -34 4 -25 45 -33 54 -11 3 9
16 16 29 16 12 0 28 7 35 15 9 11 16 13 24 5 16 -16 26 -12 26 10 0 11 5 20
10 20 6 0 10 -7 10 -15 0 -20 12 -19 43 5 14 11 40 20 60 20 26 0 36 5 40 20
3 12 14 20 26 20 22 0 29 24 10 35 -14 9 19 45 41 45 17 0 40 18 40 32 0 14
-43 7 -87 -13z"/>
<path d="M1757 6363 c-13 -12 -7 -43 7 -43 16 0 25 19 18 38 -5 13 -15 16 -25
5z"/>
<path d="M5160 6360 c0 -5 5 -10 10 -10 6 0 10 5 10 10 0 6 -4 10 -10 10 -5 0
-10 -4 -10 -10z"/>
<path d="M5130 6330 c0 -5 5 -10 10 -10 6 0 10 5 10 10 0 6 -4 10 -10 10 -5 0
-10 -4 -10 -10z"/>
<path d="M5072 6290 c6 -37 3 -39 -75 -55 -41 -8 -68 -9 -83 -3 -16 7 -33 4
-70 -14 -45 -21 -50 -28 -66 -78 -21 -70 -23 -162 -3 -200 15 -29 39 -43 29
-17 -4 12 52 37 85 37 18 0 13 -39 -10 -70 -21 -27 -20 -68 0 -55 11 6 97 -11
123 -26 25 -13 28 -12 28 16 0 14 5 25 10 25 6 0 20 10 32 22 31 31 136 46
299 43 75 -1 141 -5 147 -9 6 -3 31 -10 57 -15 37 -7 54 -5 85 10 22 11 50 19
64 19 14 0 28 5 31 10 8 13 65 13 65 0 0 -5 -19 -14 -42 -20 -123 -32 -170
-57 -83 -46 28 4 105 10 172 14 102 6 127 11 151 29 16 12 48 27 71 34 57 17
47 35 -17 31 -60 -4 -65 5 -21 42 36 31 29 50 -24 60 -17 4 -49 18 -69 31 -21
14 -42 25 -48 25 -6 0 -29 12 -53 27 -23 14 -75 42 -116 60 -166 76 -319 97
-466 63 -168 -38 -178 -40 -184 -34 -3 3 1 11 10 18 15 11 15 13 -1 34 -25 30
-33 28 -28 -8z m538 -62 c126 -50 181 -81 220 -124 49 -54 58 -69 32 -55 -11
6 -28 8 -37 5 -17 -7 -43 0 -185 47 -128 44 -219 41 -432 -14 -66 -17 -78 -10
-78 43 0 85 135 143 315 136 63 -3 98 -11 165 -38z m-770 -38 c0 -5 -5 -10
-11 -10 -5 0 -7 5 -4 10 3 6 8 10 11 10 2 0 4 -4 4 -10z"/>
<path d="M1716 6258 c-16 -23 -13 -38 8 -38 14 0 38 45 29 54 -11 11 -22 6
-37 -16z"/>
<path d="M1886 6256 c-8 -31 -33 -41 -41 -15 -8 26 -21 24 -29 -3 -9 -37 -8
-38 39 -38 36 0 48 5 60 24 17 25 11 56 -10 56 -7 0 -16 -11 -19 -24z"/>
<path d="M1682 6193 c-5 -10 -15 -47 -21 -83 -7 -36 -19 -94 -26 -130 -8 -38
-12 -99 -9 -146 l4 -81 -30 2 c-23 1 -30 -2 -30 -17 0 -14 8 -18 35 -18 33 0
35 -2 46 -46 14 -54 35 -66 61 -35 24 31 24 61 -2 61 -14 0 -21 7 -22 23 0 12
-2 33 -3 47 -12 130 6 390 27 390 4 0 8 11 8 25 0 29 -25 34 -38 8z"/>
<path d="M2905 5872 c-15 -11 -55 -70 -55 -82 0 -21 18 -9 45 29 26 38 32 69
10 53z"/>
<path d="M5590 5744 c-47 -8 -148 -15 -225 -15 -135 0 -139 -1 -100 -15 64
-24 236 -21 315 5 36 11 75 21 87 21 12 0 25 5 28 10 7 12 4 12 -105 -6z"/>
<path d="M2810 5725 c0 -8 2 -15 4 -15 2 0 6 7 10 15 3 8 1 15 -4 15 -6 0 -10
-7 -10 -15z"/>
<path d="M3865 5619 c-22 -6 -47 -8 -56 -6 -9 2 -21 -4 -28 -14 -8 -14 -23
-19 -54 -19 -23 0 -57 -4 -76 -10 -53 -15 -330 -15 -363 1 -22 10 -36 10 -68
0 -48 -14 -52 -31 -9 -31 23 0 30 -4 25 -15 -9 -24 24 -34 79 -24 28 5 124 8
215 7 162 -3 166 -3 230 25 36 16 72 35 81 43 8 8 25 14 36 14 11 0 28 9 38
20 21 23 14 24 -50 9z"/>
<path d="M1731 5582 c-13 -24 -5 -32 31 -32 25 0 29 4 26 23 -4 29 -43 35 -57
9z"/>
<path d="M1653 5515 c-9 -25 2 -27 28 -6 l24 20 -23 1 c-12 0 -25 -7 -29 -15z"/>
<path d="M1410 5279 c0 -5 5 -7 10 -4 6 3 10 8 10 11 0 2 -4 4 -10 4 -5 0 -10
-5 -10 -11z"/>
<path d="M4935 5046 c-67 -21 -105 -45 -105 -66 0 -54 130 -52 239 4 30 16 30
18 16 40 -25 38 -77 45 -150 22z"/>
<path d="M7930 5000 c0 -5 5 -10 10 -10 6 0 10 5 10 10 0 6 -4 10 -10 10 -5 0
-10 -4 -10 -10z"/>
<path d="M4174 4939 c-34 -10 -79 -53 -70 -67 3 -6 46 -13 96 -17 75 -6 95 -4
115 9 13 9 31 16 40 16 40 0 -8 54 -57 64 -40 8 -86 6 -124 -5z"/>
<path d="M5910 4598 c0 -7 5 -31 12 -53 6 -22 12 -53 12 -70 1 -16 3 -48 4
-70 1 -22 6 -46 11 -54 23 -37 80 64 81 141 0 39 -6 54 -31 83 -22 25 -39 35
-60 35 -17 0 -29 -5 -29 -12z"/>
<path d="M5417 4383 c-38 -3 -60 -9 -64 -19 -3 -9 -19 -14 -43 -14 -46 0 -57
-12 -36 -42 9 -12 16 -35 16 -50 0 -33 13 -35 40 -8 37 37 47 26 55 -59 9
-105 0 -124 -62 -119 -39 3 -47 0 -54 -19 -8 -21 -5 -23 26 -23 19 0 53 7 76
17 33 13 46 14 60 5 26 -16 28 -15 39 13 10 26 24 32 35 15 8 -13 35 -1 35 16
0 8 16 24 35 35 19 12 35 24 35 29 0 8 40 25 83 34 15 4 27 2 27 -3 0 -21 30
2 37 28 3 14 14 43 24 63 22 43 24 74 7 85 -7 4 -40 8 -73 9 -33 0 -100 3
-150 6 -49 3 -116 4 -148 1z"/>
<path d="M5105 4297 c-19 -14 -13 -37 9 -37 7 0 23 11 36 25 l23 25 -24 0
c-14 0 -33 -6 -44 -13z"/>
<path d="M3810 4209 c-70 -12 -181 -54 -191 -70 -5 -10 2 -30 21 -60 17 -24
31 -48 33 -54 2 -5 26 -10 54 -11 28 -2 71 -9 95 -17 24 -9 79 -23 122 -32 91
-18 107 -12 87 32 -17 37 -27 173 -14 173 6 0 14 -8 18 -17 6 -14 9 -11 16 17
4 19 5 38 3 42 -7 10 -185 8 -244 -3z"/>
<path d="M4170 4210 c0 -5 7 -10 15 -10 8 0 15 5 15 10 0 6 -7 10 -15 10 -8 0
-15 -4 -15 -10z"/>
<path d="M5106 4055 c-13 -34 -128 -59 -165 -36 -9 6 -23 3 -40 -9 -41 -29
-121 -40 -331 -45 -107 -3 -208 -9 -225 -14 l-30 -8 25 -6 c110 -26 402 -36
490 -16 47 10 143 26 220 36 24 3 55 12 68 21 13 8 40 18 60 21 48 8 52 28 8
36 -19 4 -37 13 -40 21 -7 19 -32 18 -40 -1z"/>
<path d="M4235 3960 c3 -5 8 -10 11 -10 2 0 4 5 4 10 0 6 -5 10 -11 10 -5 0
-7 -4 -4 -10z"/>
<path d="M151 3479 c-13 -10 -19 -19 -14 -19 13 0 49 27 43 33 -3 3 -16 -3
-29 -14z"/>
<path d="M6477 1733 c-8 -14 5 -123 15 -123 5 0 6 26 2 63 -7 66 -9 73 -17 60z"/>
<path d="M2712 1523 c-59 -57 -79 -122 -85 -278 -6 -135 2 -118 22 45 11 96
42 176 87 228 44 52 28 55 -24 5z"/>
<path d="M2621 1054 c0 -11 3 -14 6 -6 3 7 2 16 -1 19 -3 4 -6 -2 -5 -13z"/>
<path d="M2637 915 c3 -38 10 -79 15 -90 10 -24 0 94 -12 133 -5 16 -6 -2 -3
-43z"/>
<path d="M6387 964 c-4 -4 -7 -17 -7 -28 1 -19 1 -20 11 -3 11 19 8 43 -4 31z"/>
<path d="M6357 881 c-4 -17 -3 -21 5 -13 5 5 8 16 6 23 -3 8 -7 3 -11 -10z"/>
<path d="M2662 775 c0 -16 2 -22 5 -12 2 9 2 23 0 30 -3 6 -5 -1 -5 -18z"/>
<path d="M6285 760 c-3 -5 -3 -15 1 -21 6 -11 23 6 24 24 0 10 -18 9 -25 -3z"/>
<path d="M2670 686 c0 -14 5 -26 10 -26 6 0 10 9 10 19 0 11 -4 23 -10 26 -6
4 -10 -5 -10 -19z"/>
<path d="M6201 634 c-23 -30 -46 -54 -52 -54 -5 0 -9 -5 -9 -11 0 -7 -26 -41
-57 -77 -50 -56 -101 -115 -146 -172 -33 -40 -58 -80 -50 -80 20 0 301 310
344 380 46 76 26 86 -30 14z"/>
<path d="M2690 619 c0 -20 23 -94 32 -104 9 -9 6 28 -8 93 -4 22 -24 31 -24
11z"/>
<path d="M2730 473 c0 -12 5 -25 10 -28 13 -8 13 15 0 35 -8 12 -10 11 -10 -7z"/>
</g>
</svg>
